<?xml version="1.0" encoding="iso-8859-1"?>
<!-- Generator: Adobe Illustrator 19.0.0, SVG Export Plug-In . SVG Version: 6.00 Build 0)  -->
<svg xmlns="http://www.w3.org/2000/svg" xmlns:xlink="http://www.w3.org/1999/xlink" version="1.1" id="Layer_1" x="0px" y="0px" viewBox="0 0 512.04 512.04" style="enable-background:new 0 0 512.04 512.04;" xml:space="preserve" width="512" height="512">
<g>
	<g>
		<g>
			<g>
				<g>
					<g>
						<g>
							<g>
								<path style="fill:#FFE471;" d="M489.02,204.388c-1.312-7.868-5.494-14.874-11.43-19.794L270.572,12.985          c-8.769-7.269-21.08-7.258-29.838,0.025L34.414,184.606c-5.914,4.919-10.077,11.912-11.391,19.761l-0.388,285.054          c0,8.35,6.381,15.119,14.253,15.119h438.263c7.872,0,14.253-6.769,14.253-15.119L489.02,204.388z"/>
								<g>
									<g>
										<path style="fill:#EDEDED;" d="M446.581,408.012H65.459V87.529c0-17.691,14.341-32.032,32.032-32.032h317.058            c17.691,0,32.032,14.341,32.032,32.032V408.012z"/>
									</g>
								</g>
								<path style="fill:#D6D6D6;" d="M414.549,55.497h-19.991v352.515h52.023V87.529C446.581,69.838,432.24,55.497,414.549,55.497          z"/>
								<g>
									<g>
										<g>
											<g>
												<g>
													<path style="fill:#F2CA20;" d="M489.404,489.421l-0.384-285.032c0,0-167.391,130.877-218.383,171.739               c-8.65,6.932-20.585,6.932-29.235,0c-50.992-40.861-218.379-171.76-218.379-171.76l-0.388,285.054               c0,8.35,6.381,15.119,14.253,15.119h438.263C483.023,504.54,489.404,497.771,489.404,489.421z"/>
													<path style="fill:#E0B917;" d="M489.02,204.388c0,0-21.247,16.612-50.904,39.845l0.272,202.026               c0,8.35-6.381,15.119-14.253,15.119H22.674l-0.038,28.043c0,8.35,6.381,15.119,14.253,15.119h438.262               c7.872,0,14.253-6.769,14.253-15.119L489.02,204.388z"/>
													<path style="fill:#FFE471;" d="M241.402,376.127c-9.764-7.824-23.798-18.952-40.105-31.827L26.448,499.688               c2.603,2.977,6.311,4.851,10.441,4.851h438.263c3.916,0,7.462-1.678,10.038-4.39l-174.635-155.7               c-16.227,12.811-30.191,23.883-39.918,31.677C261.988,383.058,250.052,383.059,241.402,376.127z"/>
													<path style="fill:#FFE471;" d="M241.402,376.127c-9.764-7.824-23.798-18.952-40.105-31.827L26.448,499.688               c2.603,2.977,6.311,4.851,10.441,4.851h438.263c3.916,0,7.462-1.678,10.038-4.39l-174.635-155.7               c-16.227,12.811-30.191,23.883-39.918,31.677C261.988,383.058,250.052,383.059,241.402,376.127z"/>
													<path style="fill:#F2CA20;" d="M36.889,504.54h438.262c3.916,0,7.462-1.678,10.038-4.39l-49.902-44.492               c-2.611,3.481-6.632,5.72-11.152,5.72H69.556l-43.108,38.31c0,0,0,0,0,0C29.051,502.666,32.759,504.54,36.889,504.54z"/>
												</g>
											</g>
										</g>
									</g>
								</g>
							</g>
						</g>
					</g>
				</g>
			</g>
			<path style="fill:#F43B45;" d="M260.992,115.926l17.56,54.045c0.728,2.241,2.817,3.759,5.173,3.759h56.827     c5.269,0,7.46,6.743,3.197,9.84l-45.974,33.402c-1.906,1.385-2.704,3.84-1.976,6.081l17.56,54.045     c1.628,5.011-4.107,9.179-8.37,6.081l-45.974-33.402c-1.906-1.385-4.488-1.385-6.394,0l-45.974,33.402     c-4.263,3.097-9.999-1.07-8.37-6.081l17.56-54.045c0.728-2.241-0.07-4.696-1.976-6.081l-45.974-33.402     c-4.263-3.097-2.072-9.84,3.197-9.84h56.827c2.356,0,4.445-1.517,5.173-3.759l17.56-54.045     C252.274,110.914,259.364,110.914,260.992,115.926z"/>
		</g>
	</g>
	<g>
		<path d="M496.52,204.378c-0.001-0.41-0.035-0.819-0.103-1.223c-1.583-9.499-6.569-18.141-14.041-24.334l-28.296-23.456V87.529    c0-21.798-17.733-39.532-39.531-39.532h-89.99L275.358,7.211c-11.612-9.626-27.821-9.613-39.42,0.033l-49,40.753H97.491    c-21.798,0-39.531,17.734-39.531,39.532v67.74l-28.341,23.571c-7.436,6.184-12.405,14.81-13.993,24.289    c-0.067,0.406-0.102,0.817-0.103,1.229l-0.387,285.064c0,12.472,9.759,22.619,21.753,22.619h438.262    c11.994,0,21.753-10.147,21.753-22.629L496.52,204.378z M30.502,219.741c29.097,22.771,104.568,81.87,159.12,124.901    L30.14,486.373L30.502,219.741z M201.58,354.082c14.214,11.231,26.41,20.909,35.132,27.898c5.685,4.555,12.496,6.832,19.308,6.832    s13.623-2.277,19.308-6.833c8.682-6.957,20.806-16.577,34.936-27.741L470.431,497.04H40.718L201.58,354.082z M481.901,487.169    L322.219,344.801c54.568-43.039,130.188-102.245,159.321-125.04L481.901,487.169z M245.53,18.776    c5.96-4.958,14.29-4.963,20.256-0.018l35.271,29.238h-90.661L245.53,18.776z M39.21,190.372l18.749-15.594v31.03    c0,4.142,3.357,7.5,7.5,7.5s7.5-3.358,7.5-7.5V87.529c0-13.527,11.005-24.532,24.531-24.532h92.153c0.019,0,0.038,0,0.057,0    h224.849c13.526,0,24.531,11.005,24.531,24.532v118.279c0,4.142,3.357,7.5,7.5,7.5s7.5-3.358,7.5-7.5v-30.961l18.724,15.521    c3.579,2.967,6.249,6.82,7.755,11.116c-25.338,19.819-168.467,131.812-214.613,168.79c-5.938,4.759-13.917,4.757-19.854,0    C199.947,333.297,56.825,221.288,31.486,201.464C32.99,197.177,35.65,193.333,39.21,190.372z"/>
		<path d="M163.48,189.637l44.763,32.522l-17.098,52.621c-1.738,5.348,0.15,11.162,4.699,14.467c2.275,1.653,4.94,2.479,7.606,2.479    s5.331-0.826,7.605-2.479l44.763-32.522l44.763,32.521c4.547,3.305,10.659,3.305,15.212,0c4.549-3.306,6.438-9.12,4.699-14.467    l-17.098-52.621l44.763-32.522c4.55-3.305,6.438-9.119,4.7-14.467c-1.737-5.348-6.683-8.94-12.306-8.94h-55.33l-17.098-52.621    c-1.737-5.348-6.683-8.941-12.306-8.941s-10.568,3.593-12.306,8.94l-17.098,52.622h-55.33c-5.623,0-10.568,3.593-12.306,8.94    C157.041,180.518,158.93,186.331,163.48,189.637z M227.912,181.229c5.623,0,10.568-3.593,12.307-8.94l15.601-48.013l15.601,48.014    c1.738,5.347,6.684,8.94,12.306,8.94h50.485l-40.844,29.674c-4.548,3.305-6.437,9.118-4.7,14.467l15.601,48.014l-40.842-29.674    c-2.275-1.653-4.94-2.479-7.606-2.479c-2.665,0-5.331,0.827-7.605,2.479l-40.843,29.674l15.602-48.016    c1.735-5.347-0.153-11.16-4.702-14.465l-40.843-29.674H227.912z"/>
	</g>
</g>















</svg>
